<svg xmlns="http://www.w3.org/2000/svg" width="3000" height="3000"><path fill="#4da6ff" d="M1552.313 266.625h2.22c2.83.06 5.11.21 7.71 1.39 3.49 1.25 6.66 1.16 10.31 1.04 1.51-.03 3.01-.06 4.52-.08.78-.02 1.57-.04 2.38-.05 15.29-.3 29.59.58 44.55 4.08 1.53.33 3.07.67 4.61 1.01 3.47.78 6.93 1.62 10.38 2.49 2.06.51 4.12 1 6.19 1.5 10.97 2.63 21.47 5.75 31.7 10.58 3.87 1.76 7.8 3.33 11.74 4.92 16.46 6.65 16.46 6.65 18.38 10.5 2.97.65 5.94 1.31 9 2 .99 1.31 1.98 2.63 3 4 2.97.65 5.94 1.31 9 2 .32.43.32.43 1.93 2.62 2.76 3.3 5.87 5.38 9.47 7.68 7.46 4.87 14.49 10.38 21.07 16.38 1.53 1.32 1.53 1.32 3.53 2.32v2c.99.32 1.98.65 3 1v2c.29.12.29.12 1.74.75 2.58 1.42 4.3 3.06 6.37 5.16.37.38.37.38 2.28 2.3.39.4.39.4 2.36 2.41l2.4 2.43c5.85 5.92 5.85 5.92 5.85 7.95h2a1058 1058 0 0 1 4.78 5.37c2.53 2.99 4.92 6.07 7.31 9.17 1.89 2.43 3.8 4.85 5.7 7.26 12.58 16.04 22.41 32.86 31.21 51.2.31.63.62 1.26.93 1.92 3.8 7.78 7.12 15.55 9.93 23.76.82 2.38 1.67 4.73 2.57 7.09 9.15 24.29 15.07 50.3 16.57 76.23.06.98.12 1.97.18 2.98 1.17 20.04 1.46 40.21-2.18 60.02-.28 1.75-.55 3.51-.81 5.26-2.23 14.49-5.35 28.59-9.19 42.74-.11.42-.11.42-.68 2.57-6.22 23.43-16.23 46.08-29.17 66.57-1.46 2.34-2.79 4.74-4.09 7.17-.25.47-.25.47-1.54 2.84-.98 1.84-1.97 3.69-2.96 5.54-3.32 6.18-6.91 12.15-10.62 18.11-2.3 3.79-4.42 7.67-6.51 11.58-1.88 3.43-3.91 6.76-5.94 10.1-1.53 2.57-2.95 5.19-4.37 7.83-2.24 4.15-4.63 8.18-7.12 12.19-3.56 5.72-6.83 11.55-10 17.5-4.45 8.31-4.45 8.31-6.94 11.37-2.63 3.35-4.49 6.97-6.49 10.73-1.87 3.45-3.9 6.79-5.98 10.12-1.38 2.4-2.6 4.82-3.81 7.31-3.06 6.18-6.63 12.02-10.22 17.9-4.72 7.76-9.26 15.57-13.56 23.57-1.66 3-3.33 6-5 9-.78 1.39-1.55 2.78-2.33 4.18-1.22 2.19-2.44 4.39-3.66 6.58-2.19 3.96-4.39 7.91-6.57 11.88-4.56 8.28-9.24 16.47-14.15 24.56-2.97 4.9-5.87 9.85-8.77 14.8-2.2 3.76-4.43 7.48-6.71 11.18-2.62 4.33-4.84 8.83-7.07 13.37-2.98 6.02-6.32 11.81-9.69 17.62-1.83 3.18-3.63 6.38-5.43 9.57-.37.67-.74 1.33-1.13 2.01-2 3.57-3.99 7.15-5.97 10.73a746 746 0 0 1-21.65 36.7c-4.09 6.53-8.06 13.12-11.87 19.82-.47.81-.93 1.62-1.4 2.46-5.61 9.86-11.17 19.74-16.67 29.66-3.7 6.69-7.46 13.35-11.24 20-.5.87-.99 1.73-1.5 2.62-2.15 3.78-4.34 7.52-6.67 11.18-2.52 3.98-4.73 8.09-6.96 12.22-2.56 4.68-5.28 9.27-8 13.86-.28.48-.28.48-1.72 2.91-2.86 4.82-5.77 9.59-8.84 14.27a62 62 0 0 0-5.23 9.83c-2.89 6.49-6.49 12.45-10.21 18.49-4.73 7.73-9.29 15.5-13.56 23.5a432 432 0 0 1-9.22 16.03c-6.37 10.59-12.56 21.29-18.73 31.99-2.94 5.09-5.94 10.14-8.99 15.16-2.93 4.84-5.61 9.72-8.06 14.82-.99 1.67-1.99 3.33-3 5-.92 1.58-1.84 3.17-2.74 4.76-.51.89-1.02 1.78-1.55 2.7-.52.92-1.05 1.84-1.59 2.78-.51.91-1.03 1.81-1.56 2.74-2.39 4.18-4.76 8.36-7.07 12.57-2.69 4.85-5.55 9.58-8.43 14.32-3.77 6.24-7.41 12.51-10.84 18.96-1.46 2.59-3.16 4.92-4.94 7.3-2.15 3.13-3.88 6.48-5.66 9.83-1.31 2.45-2.64 4.88-4 7.31-1.71 3.07-3.4 6.15-5.06 9.24a523 523 0 0 1-17.06 29.24c-3.27 5.22-6.38 10.47-9.25 15.92-1.31 2.44-2.74 4.78-4.19 7.14-2.35 3.86-4.39 7.81-6.37 11.87-3.47 7.1-7.49 13.8-11.61 20.53-1.66 2.74-3.28 5.51-4.89 8.29a404 404 0 0 0-5.32 9.31c-1.87 3.18-1.87 3.18-4.18 6.25-2.79 3.81-4.76 7.94-6.82 12.18-3.35 6.83-7.12 13.42-10.89 20.03-1.25 2.19-2.46 4.39-3.67 6.6-2.21 3.99-4.56 7.9-6.92 11.8-1.12 1.86-2.2 3.75-3.27 5.64-1.8 3.17-3.7 6.27-5.62 9.37-15.8 25.6-15.8 25.6-22 37.59-1.67 3.03-3.57 5.85-5.5 8.73-.9 1.56-1.78 3.15-2.63 4.74-3.97 7.37-8.04 14.68-12.11 21.99-1.18 2.11-2.35 4.23-3.52 6.35-8.79 15.84-18.28 31.12-28.74 45.92-.69.98-1.38 1.96-2.08 2.98-7.25 10.2-15.5 19.58-23.95 28.8a97 97 0 0 0-4 4.8 39 39 0 0 1-5.54 5.6c-3.28 2.8-6.46 5.69-9.62 8.63-9.32 8.5-19.56 15.85-29.81 23.19-.79.57-1.57 1.14-2.38 1.73-10.9 7.83-22.5 14.3-34.37 20.51-.95.5-1.89 1-2.87 1.51-6.37 3.29-12.83 6.33-19.38 9.25-1.03.46-2.05.92-3.1 1.4-7.78 3.37-15.72 5.74-23.86 8.02-1.83.51-3.65 1.06-5.47 1.6-8.32 2.48-16.72 4.44-25.2 6.31-.91.2-1.82.41-2.76.61-.82.18-1.63.36-2.47.55-2.14.51-2.14.51-5.14 1.51-1.38.19-2.75.36-4.14.5l-2.44.24c-.42.05-.42.05-2.55.26-1.65.16-3.29.33-4.94.5-.73.07-1.46.14-2.21.21-1.58.17-3.16.34-4.73.53-5.25.63-10.43.94-15.72.99l-2.45.03c-39.62.38-80.89-3.35-117.25-20.31-4.94-2.29-9.89-4.14-15.07-5.83-9.51-3.18-17.91-8.02-26.5-13.12-1.39-.82-2.77-1.63-4.15-2.44-6.76-3.98-13.37-8.14-19.85-12.56l-2.12-1.39c-8.68-5.66-17.03-11.85-24.88-18.61v-2c-.6-.29-1.2-.58-1.81-.88-2.19-1.13-2.19-1.13-5.19-3.12v-2c-.6-.27-1.19-.53-1.8-.81-2.28-1.24-3.68-2.5-5.45-4.38-2.45-2.53-4.94-4.87-7.63-7.13-8.71-7.53-15.82-16.81-23.12-25.68v-2c-.99-.33-1.98-.67-3-1-.64-.97-1.28-1.94-1.94-2.93-.88-1.32-1.75-2.64-2.63-3.95-.45-.69-.91-1.37-1.37-2.08-2.57-3.85-5.18-7.66-7.87-11.42-2.58-3.65-4.79-7.37-6.89-11.31-1.43-2.54-3.04-4.9-4.68-7.31-3.48-5.37-5.85-10.96-8.14-16.9-1.31-3.38-2.67-6.55-4.52-9.66-2.01-3.52-3.38-6.94-4.71-10.76-.43-1.21-.86-2.42-1.3-3.67-.95-3.01-.95-3.01-.95-5.01h-2c-.09-.5-.09-.5-.55-3-.26-1.34-.51-2.67-.76-4-.12-.65-.24-1.3-.36-1.97-.81-4.2-2.01-8.02-3.57-12-12.65-33.61-20.81-99.67-5.96-133.06 1.52-2.51 3.32-4.72 5.2-6.97.02-1.08.05-2.15.08-3.26.48-13.5.48-13.5 4.92-19.74 1.09-3.87.9-7.21.62-11.19-.09-14.86 8.6-28.97 15.38-41.81.34-.66.68-1.31 1.03-1.98 2.3-4.36 4.63-8.69 6.97-13.02.46-.89.93-1.77 1.41-2.68 3.81-7.15 8-14.05 12.19-20.98 3.18-5.27 6.21-10.6 9.11-16.04 1.32-2.36 2.76-4.57 4.29-6.8 2.69-3.96 4.99-8.03 7.25-12.24a865 865 0 0 1 18.35-32.5c2.42-4.09 4.78-8.22 7.05-12.4 1.14-2 2.31-3.96 3.5-5.92 7.58-12.42 7.58-12.42 10-18.71.99-2.03 2.19-3.21 3.85-4.73 4.01-4.31 5.5-7.22 7-13 .98-1.35 1.99-2.68 3-4 1.24-2.37 2.38-4.77 3.52-7.18 1.57-3.01 3.34-5.82 5.15-8.69 2.2-3.54 4.2-7.18 6.2-10.82.43-.78.87-1.56 1.31-2.36 2-3.61 3.97-7.22 5.88-10.87.6-1.14 1.2-2.28 1.81-3.46.52-1 1.03-2 1.56-3.02 1.6-2.65 3.36-4.45 5.57-6.6 1.41-2.19 1.41-2.19 2.62-4.44.41-.74.81-1.48 1.23-2.25 1.15-2.31 1.15-2.31 2-4.58 1.62-3.87 3.76-7.39 5.9-10.99.45-.76.9-1.52 1.36-2.3 2.71-4.55 5.53-8.98 8.53-13.35 2.16-3.34 3.99-6.84 5.86-10.35 1.41-2.58 2.89-5.06 4.43-7.56 2.33-3.82 4.36-7.72 6.32-11.75 3.71-7.58 7.97-14.78 12.3-22.02 2.69-4.48 5.35-8.98 8.01-13.48.55-.93 1.11-1.87 1.68-2.84 4.33-7.33 8.55-14.73 12.69-22.17 1.89-3.4 3.79-6.79 5.69-10.18.37-.66.74-1.32 1.13-2 2.91-5.17 5.9-10.29 8.94-15.39 1.31-2.35 1.31-2.35 2.31-5.35h2c.24-.73.49-1.45.75-2.19 1.25-2.81 1.25-2.81 3.18-5.19 1.97-2.5 3.07-4.84 4.28-7.76 3.82-9.1 8.57-17.35 14.16-25.46 2.51-3.65 4.69-7.31 6.69-11.28 2.56-4.95 5.92-8.22 9.96-11.99 2.91-3.14 3.74-6.07 4.98-10.13.53-.69 1.07-1.37 1.62-2.07 1.38-1.93 1.38-1.93 1.63-4.93.52-4.87 3.22-8.55 5.73-12.65 2.09-3.47 3.97-7.01 5.83-10.61 3.25-6.2 6.82-12.14 10.6-18.03 2.59-4.04 4.97-8.16 7.28-12.37 2.29-4.11 4.75-8.13 7.18-12.16 1.07-1.77 2.13-3.54 3.19-5.31 2.81-4.66 2.81-4.66 4.06-6.73 3.26-5.43 6.28-10.9 9.07-16.58 4.81-9.78 10.33-19.15 15.81-28.56.47-.82.94-1.63 1.42-2.46 4.27-7.37 8.54-14.68 13.35-21.71 2.39-3.57 4.41-7.36 6.49-11.1 3.92-6.83 8.63-12.76 13.74-18.73h2c.27-.6.53-1.2.81-1.82 1.19-2.18 1.19-2.18 2.63-3.54 1.82-1.92 2.61-3.7 3.62-6.14 1.16-2.79 2.25-4.97 3.94-7.5.09-1.61.13-3.21.12-4.82.57-7.84 4.73-13.75 8.88-20.18l1.79-2.79c1.38-2.09 2.78-4.16 4.21-6.21 2-3 2-3 2.81-5.88 1.42-3.75 3.33-5.33 6.19-8.12 1.55-2.18 3-4.41 4.45-6.66 2.36-3.57 4.95-6.95 7.55-10.34 1-1.34 2-2.67 3-4h2c.01-.75.01-1.5.02-2.26.34-8.08 2.28-13.38 6.54-20.18.54-.91 1.09-1.82 1.65-2.75 1.57-2.62 3.17-5.22 4.79-7.81.79-1.29 1.57-2.57 2.36-3.86 1.3-2.11 2.6-4.21 3.91-6.31 2.2-3.62 4.22-7.33 6.22-11.07 2.2-4.04 4.55-7.99 6.89-11.94 1.13-1.96 2.18-3.96 3.19-5.99 1.43-2.83 1.43-2.83 3.55-5.96 1.61-2.46 2.44-4.03 2.88-6.87.66-.33 1.32-.67 2-1 .34-.75.68-1.49 1.04-2.26 4.37-9.13 9.5-17.66 14.83-26.26a208 208 0 0 0 10.61-19.47c2.06-4.09 4.51-7.86 7.03-11.68 1.49-2.33 1.49-2.33 3.05-5.71 1.53-2.8 3.29-4.33 5.81-6.26 5.62-4.71 7.58-8.04 8.63-15.36l4-4c.17-.89.34-1.77.51-2.67.25-1.16.49-2.33.74-3.52.23-1.15.46-2.3.7-3.48 1.13-3.6 2.6-5.52 5.05-8.33 1.12-2.07 1.12-2.07 2-4 1.16-2.43 2.17-4.21 3.87-6.32 1.96-2.47 3.33-4.79 4.82-7.56 2.54-4.73 5.12-9.42 7.81-14.06.18-.32.18-.32 1.07-1.94 2.52-4.3 5.06-6.55 9.43-9.12 4.21-3.63 5.9-6.9 8-12 2.18-2.94 2.18-2.94 4-5-.01-.37-.01-.37-.03-2.24.26-8.88 2.97-13.67 8.03-20.76.84-1.3 1.66-2.6 2.49-3.91 8.62-13.71 18.26-26.56 28.51-39.09h2c.24-.56.49-1.12.75-1.69 2.73-5.06 6.53-8.55 10.85-12.23 2.3-2 4.55-4.06 6.79-6.15 13.66-12.69 13.66-12.69 20.61-15.93v-2c27.17-19.83 27.17-19.83 41-27 .43-.24.43-.24 2.59-1.42 5.44-2.87 10.35-4.51 16.41-5.58.72-.73 1.44-1.45 2.19-2.19.46-.47.46-.47 2.81-2.81.72-.85 1.44-1.7 2.19-2.57 3.27-2.84 6.36-4.08 10.41-5.54 2.4-.89 2.4-.89 4.25-1.95 4.13-1.81 8.78-1.76 13.23-2.19 3.35-.65 4.86-1.17 7.68-2.79 5.88-3.16 12.24-2.48 18.75-2.45 8.33-.12 8.33-.12 12.19-2.41 6.16-3.53 13.67-3.62 20.61-4.36.38-.04.38-.04 2.29-.25 8.89-.99 17.76-1.85 26.71-1.87m511.187 850.063c.84 0 1.68.01 2.54.01 8.32.13 16.57.86 24.84 1.68 1.3.12 2.6.25 3.94.38 5.69.6 10.78 1.27 16.18 3.24v2l2.1.12c23.74 1.43 23.74 1.43 32.36 4.88 2.78 1.1 5.51 1.77 8.42 2.44 9.02 2.18 17.83 5.18 26.03 9.55 2.64 1.28 5.34 2.25 8.09 3.26 21.09 8.03 39.66 20.46 57.27 34.39 2.12 1.67 4.27 3.3 6.42 4.93 1.44 1.13 2.88 2.28 4.31 3.43.93.74 1.85 1.48 2.8 2.24 8.36 6.85 16.01 14.38 23.64 22.01.26.26.26.26 1.57 1.58 12.71 12.71 23.15 26.12 32.99 41.17.37.57.75 1.14 1.13 1.72 4.99 7.58 9.64 15.25 13.87 23.28.73 1.35 1.46 2.7 2.19 4.04 3.92 7.26 7.65 14.45 10.64 22.15.95 2.29 1.98 4.41 3.12 6.59 2.15 4.26 3.65 8.6 5.05 13.16.13.41.13.41.77 2.48 2.09 6.85 3.82 13.76 5.37 20.75.6 2.66 1.21 5.29 1.88 7.93 6.63 26.34 7.59 52.89 6.98 79.9l-.06 2.91c-1.36 51.03-17.2 101.35-42.94 145.09l-2.88 4.95c-3.94 6.75-7.96 13.44-12.12 20.05-3.51 5.59-6.67 11.26-9.56 17.19-2.1 4.3-4.29 8.27-7.21 12.07-2.15 3.04-3.81 6.37-5.56 9.65-1.84 3.4-3.74 6.75-5.67 10.09-2.43 4.22-4.81 8.47-7.12 12.75-1.85 3.42-3.78 6.76-5.82 10.06-2.4 3.95-4.47 7.98-6.5 12.13-3.56 7.28-7.83 13.95-12.31 20.7-4 6.11-7.3 12.38-10.5 18.94-2.11 4.12-4.54 7.93-7.07 11.79-2.2 3.45-4.1 7.02-6.02 10.63-1.94 3.5-4.01 6.9-6.1 10.31a173 173 0 0 0-8.06 14.76c-2.73 5.62-5.86 10.76-9.3 15.97-2.62 3.98-4.79 8-6.84 12.29-4.37 8.62-9.69 16.76-15.11 24.74-4.24 6.25-8.16 12.67-12 19.18-.53.9-1.06 1.8-1.61 2.73-3.68 6.27-7.19 12.62-10.64 19.02-6.8 12.55-13.68 25-21.23 37.12-1.93 3.15-3.73 6.34-5.5 9.58-1.52 2.76-3.11 5.46-4.71 8.18-2.18 3.71-4.29 7.45-6.31 11.25-3.19 5.92-6.73 11.62-10.29 17.33-2.57 4.14-4.89 8.3-7.02 12.68-1.43 2.83-3.12 5.49-4.82 8.17-2.98 4.77-5.77 9.6-8.43 14.56-3.43 6.36-6.95 12.65-10.47 18.95-.76 1.36-1.52 2.72-2.28 4.09-3.89 7.02-8.01 13.77-12.44 20.47-3.93 5.96-7.34 11.98-10.45 18.4-7.25 14.96-15.71 29.14-24.7 43.11-2.58 4.04-5.07 8.14-7.56 12.23-1.68 2.7-3.42 5.35-5.17 8.01-3.67 5.72-6.73 11.72-9.85 17.74-3.08 5.92-6.4 11.57-9.97 17.21-2.28 3.69-4.32 7.49-6.37 11.31-1.85 3.38-3.85 6.66-5.85 9.95-1.52 2.57-2.96 5.17-4.37 7.81-3.04 5.59-6.26 11.07-9.52 16.54-4.31 7.25-8.55 14.53-12.65 21.89-2.17 3.89-4.39 7.73-6.66 11.55-2.45 4.15-4.64 8.36-6.76 12.68-2.78 5.67-5.85 11.06-9.14 16.44-2.81 4.61-5.48 9.28-8.1 14-3.12 5.6-6.37 11.05-9.87 16.42-1 1.54-1.97 3.1-2.91 4.67-1.25 2.08-2.52 4.12-3.83 6.16-4.89 7.63-9.25 15.24-13.19 23.4-1.78 3.49-3.82 6.63-6.05 9.84-4.18 6.19-7.76 12.8-11.28 19.39-2.74 5.07-5.73 9.97-8.75 14.87-4.72 7.67-9.1 15.43-13.29 23.4-6.48 12.31-13.52 24.26-20.76 36.13-.84 1.43-1.66 2.87-2.45 4.33-3.6 6.66-7.72 12.92-11.94 19.21l-2.09 3.14c-8.87 13.26-18.56 26.58-29.97 37.79h-2c-.25.57-.49 1.15-.75 1.73-1.46 2.65-3.17 4.44-5.32 6.57-.81.82-1.63 1.63-2.47 2.47-.85.84-1.71 1.68-2.58 2.54-.84.83-1.67 1.66-2.52 2.52-28.57 28.36-62.48 48.88-99.47 64.28-3.84 1.6-7.65 3.23-11.44 4.95-4.24 1.89-8.54 3.48-12.95 4.94l-2.34.78c-13.41 4.33-27.24 7.13-41.16 9.22-.33.05-.33.05-2 .31-37.52 5.44-76.4 3.77-113.19-4.87-.9-.21-1.79-.42-2.72-.64-4.2-1-8.09-2.17-12.09-3.8-1.93-.48-3.86-.96-5.8-1.42-4-1.05-7.87-2.45-11.76-3.83-.44-.15-.44-.15-2.66-.94-13.37-4.77-26.22-10.18-38.78-16.81-.33-.17-.33-.17-2.02-1.06-9.04-4.77-17.31-10.15-25.46-16.32-3.11-2.34-6.31-4.5-9.58-6.62-14.96-9.86-27.95-21.86-40.49-34.59a68 68 0 0 0-5.95-5.22c-5.74-4.77-10.02-11.26-14.5-17.19-.82-1.07-1.64-2.15-2.46-3.22-6.59-8.7-12.84-17.55-18.65-26.79a445 445 0 0 0-4.16-6.48c-4.14-6.38-8.21-12.75-11.73-19.51-.2-.37-.2-.37-1.2-2.27-5.3-10.33-9.76-20.75-12.74-31.98-1.02-3.61-2.19-7.13-3.42-10.67-2.73-8.02-4.81-16.15-6.76-24.39-.18-.72-.35-1.44-.53-2.18-5.53-23.18-7.58-45.53-7.6-69.32v-2.68c0-11.61.33-23.09 1.56-34.63.12-1.12.24-2.24.36-3.39.79-6.43 2.01-11.67 5.41-17.26 1.25-3.02 1.16-5.67 1.22-8.94.35-8.1 2.47-15.22 5.2-22.82.76-2.12 1.48-4.25 2.2-6.39.48-1.37.96-2.74 1.44-4.12.43-1.22.86-2.43 1.3-3.69 1.7-3.56 3.67-5.62 6.56-8.27 1.29-2.17 1.29-2.17 2.19-4.19 1.12-2.5 1.83-3.83 3.81-5.81-.09-.59-.19-1.19-.28-1.81-1.46-17.56 13.49-35.03 22.33-49.36 2.63-4.28 5.16-8.61 7.57-13.02 4.42-8.02 9.16-15.84 13.89-23.68 12.2-20.21 12.2-20.21 15.99-28.5 2.77-5.68 5.33-9.04 10.5-12.63.18-.68.36-1.37.55-2.08.25-.9.5-1.8.76-2.73.25-.89.49-1.79.74-2.71.97-2.53 1.9-3.75 3.95-5.48.14-.84.27-1.69.41-2.56 1.53-8.08 3.57-12.86 9.59-18.44l2.69-2.75c1.49-1.45 2.99-2.88 4.5-4.31 1.77-1.9 2.79-3.56 3.81-5.94h2c.17-.72.34-1.45.52-2.19 1.44-5.78 3.11-9.86 6.48-14.81 1.17-3.29 2.12-6.62 3-10l3-2c1.25-2.32 2.39-4.61 3.5-7 3.39-7.04 7.24-13.66 11.37-20.29 2.97-4.77 5.79-9.59 8.51-14.52 3.56-6.46 7.4-12.74 11.31-19 3.76-6.03 7.47-12.05 10.8-18.33 5.57-10.52 11.41-20.85 17.72-30.94 1.63-2.66 3.14-5.35 4.6-8.11 2.71-5.06 5.68-9.93 8.69-14.81 10.35-16.8 10.35-16.8 13.5-25 .3-.13.3-.13 1.8-.8 4.08-2.23 7.26-5.91 9.03-10.21.47-1.64.83-3.32 1.17-4.99l3-2 2-9 4-2c.18-.68.36-1.37.55-2.08.25-.9.5-1.8.76-2.73.25-.89.49-1.79.74-2.71.95-2.48.95-2.48 3.95-5.48l2-9h2c.25-.68.49-1.36.75-2.06 1.17-2.75 2.53-5.26 4.04-7.84 2.02-3.5 3.92-7.08 5.84-10.64 1.37-2.46 1.37-2.46 3.37-5.46h2c1.44-2.76 2.59-5.52 3.66-8.45 2.59-6.53 6.2-12.37 9.84-18.36 1.45-2.4 2.89-4.81 4.33-7.21.36-.6.71-1.2 1.08-1.81 3.19-5.31 6.28-10.66 9.34-16.04.24-.42.24-.42 1.44-2.54.96-1.68 1.91-3.36 2.86-5.04 2.54-4.46 5.09-8.91 7.64-13.36 3.19-5.58 6.36-11.17 9.49-16.78 3.4-6.1 6.95-12.02 10.76-17.88 3.14-5.08 5.62-10.49 8.12-15.9 1.5-2.73 3.13-4.56 5.44-6.63.27-1.21.54-2.43.81-3.69.87-3.53 2.11-6.28 4.19-9.31h2c.24-.51.48-1.03.73-1.56 1.69-3.25 3.61-6.37 5.52-9.5 4.15-6.85 8.17-13.77 11.75-20.94l4-2c3.73-5.62 6.35-10.39 7.52-17.05.72-2.93 2.54-4.67 4.48-6.95.83-1.54 1.61-3.11 2.38-4.69 1.63-3.37 3.35-6.61 5.31-9.81 3.42-5.59 6.57-11.32 9.71-17.08 6.63-12.07 6.63-12.07 12.6-15.42 4.99-4.77 4.99-4.77 5.08-7.41.34-6.41.68-10.67 4.92-15.59h2c.09-.69.18-1.38.28-2.09.88-3.57 2.42-6.23 4.28-9.41.18-.3.18-.3 1.08-1.84 2.43-4.16 4.95-8.25 7.48-12.35 4.91-7.91 9.26-16.02 13.38-24.37 3.56-7.19 7.61-13.95 11.89-20.72 4.2-6.68 8.34-13.34 12.06-20.32 6.34-11.85 13.15-23.46 20-35.03 4.14-7.01 8.26-14 12.1-21.18 1.66-3.08 3.37-6.14 5.07-9.19 1.42-2.57 2.82-5.15 4.21-7.72.99-1.8 1.99-3.6 2.98-5.4.49-.9.97-1.81 1.47-2.74 3.4-6.11 7.15-10.4 12.72-14.64.14-.63.27-1.27.42-1.92 2.72-11.86 11.52-21.24 19.23-30.29 2.1-2.49 4.12-5.02 6.1-7.6 2.96-3.85 6.06-7.53 9.25-11.19h2l2-4 4-2 2-5c1.04-.51 2.08-1.03 3.15-1.56 4.2-2.41 6.67-5.5 9.47-9.37 9.02-12.16 9.02-12.16 14.88-13.63 3.97-1.15 6.29-2.82 9.5-5.44 2.33-.66 4.67-1.33 7-2 2.63-1.94 2.63-1.94 5-4 1.65-1.02 3.31-2.03 5-3l1-2c6.18-3.47 12.41-6.83 18.69-10.12.81-.43 1.63-.86 2.47-1.3 1.58-.83 3.16-1.66 4.74-2.47 1.76-.93 3.49-1.9 5.21-2.88 4.66-1.98 9.33-1.7 14.33-1.82 3.76-.43 5.53-1.23 8.56-3.41.65-.43 1.31-.87 1.98-1.31.3-.21.3-.21 1.77-1.25.59-.41 1.19-.83 1.8-1.25 1.45-1.19 1.45-1.19 2.45-3.19.39-.08.39-.08 2.35-.51 5.92-1.33 11.77-2.77 17.59-4.49 6.95-2.02 13.96-3.57 21.06-5q.96-.255 1.95-.51c9.94-2.41 20.32-1.9 30.48-2.02 2.6-.03 5.2-.08 7.8-.12.4-.01.4-.01 2.4-.02 7.22-.13 13.58-2.69 20.87-2.64M650.06 1985.375c2.33.75 4.57 1.12 7 1.31 3.94.31 3.94.31 8.94 5.31l12 1 3 4c.32.08.32.08 1.95.45 23.5 5.83 45.59 20.94 65.41 34.45 1.57 1.06 3.16 2.07 4.76 3.08 3 2.11 5.33 4.41 7.88 7.02 2.11 1.88 4.27 3.69 6.44 5.5.54.46 1.09.92 1.66 1.4 3.62 3.05 7.26 6.07 10.9 9.1v2l3 1v2c.29.13.29.13 1.73.75 2.63 1.45 4.41 3.14 6.54 5.25.8.81 1.61 1.62 2.45 2.45.83.84 1.67 1.68 2.53 2.55.82.82 1.64 1.63 2.49 2.47 11.06 11.09 19.73 23.64 28.35 36.66q1.755 2.64 3.54 5.25c3.29 4.82 6.15 9.76 8.88 14.91 1.34 2.44 2.79 4.75 4.3 7.09 5.07 8.34 8.52 17.61 12.19 26.62.14.35.14.35.84 2.07 1.85 4.6 3.54 9.25 5.16 13.93.35 1.02.7 2.03 1.06 3.08 4.84 14.15 9.32 28.16 11.5 42.98.31 2.08.64 4.15.98 6.22 3.1 18.88 3.86 37.54 3.9 56.66 0 1.11.01 2.22.02 3.37.05 16.11-.95 31.16-5.46 46.69-.36 1.63-.69 3.26-1 4.9-3.67 18.88-9.69 36.96-16 55.1-.35 1.03-.7 2.06-1.06 3.11-1.85 5.26-3.87 9.94-6.75 14.71-2.8 4.71-5.36 9.44-7.75 14.37-3.09 6.25-6.55 12.04-10.44 17.81-.37.56-.74 1.12-1.12 1.7-10.62 15.98-21.7 32.03-35.72 45.22-2.16 2.08-2.16 2.08-3.16 4.08h-2l-1 3h-2l-1 3h-2v2c-7 6-7 6-9 6l-1 3c-2.27 1.82-4.54 3.63-6.81 5.44-.64.52-1.29 1.03-1.95 1.57-.31.24-.31.24-1.88 1.49-.29.23-.29.23-1.73 1.38-1.63 1.12-1.63 1.12-4.63 2.12v2c-2.09 1.4-4.19 2.79-6.28 4.19q-2.64 1.755-5.25 3.54c-16.73 11.32-33.57 22.01-52.47 29.27-2.46.98-4.92 1.96-7.37 2.94-.65.26-1.3.52-1.97.78-3.83 1.53-7.63 3.14-11.41 4.78-5.17 2.17-10.42 3.94-15.75 5.63-.76.24-1.52.48-2.3.73-6.34 1.97-12.75 3.6-19.2 5.14-.93.23-1.86.46-2.82.69-20.15 4.75-40.01 5.18-60.59 5.28-3.87.02-7.73.09-11.59.19-12.59.25-24.61-.91-37-3.16-.92-.16-1.83-.33-2.78-.5-16.2-2.98-16.2-2.98-22.22-5.5-2.6-.73-5.2-1.43-7.81-2.12-7.65-2.07-15.18-4.43-22.69-6.94-.99-.33-1.98-.65-3-.99-9.07-3.05-17.86-6.45-26.37-10.82-1.4-.71-2.79-1.41-4.18-2.12-.67-.34-1.34-.69-2.03-1.04-1.7-.85-3.41-1.68-5.12-2.5-12-5.76-22.63-13.18-33.18-21.23-3.42-2.61-6.85-5.11-10.49-7.42-4.29-2.77-7.92-6.13-11.66-9.59-2.27-2.04-4.59-3.89-7.03-5.73-4.92-3.74-9.16-8.06-13.44-12.5l-3-3v-2c-.29-.12-.29-.12-1.75-.74-12.73-7.11-23.26-26.42-31.25-38.26-.31-.45-.31-.45-1.88-2.74-5.35-7.9-10.3-16.02-15.12-24.26-.67-1.13-1.34-2.27-2.02-3.44-2.14-3.77-4.02-7.64-5.85-11.56l-1.06-2.24c-8.5-18.37-15-37.28-19.76-56.94l-1.14-4.62c-8.86-35.88-10.08-70.5-5.53-107.13.31-2.68.57-5.34.79-8.03.75-8.81 2.37-17.25 4.45-25.85.24-1.03.48-2.07.74-3.13 1.36-5.36 2.69-8.83 6.38-13.06.94-2.97.94-2.97 1.56-6.06 1.12-5.53 1.12-5.53 2.98-7.94 1.92-2.62 1.94-4.59 2.21-7.81 1.02-7.52 3.9-13.56 7.28-20.22.95-1.93 1.83-3.88 2.68-5.85 5.76-13.17 13.45-25.1 21.29-37.12l1.55-2.37c6.46-9.86 13.62-19.04 21.2-28.07 1.17-1.46 2.22-3 3.25-4.56h2c.26-.58.51-1.16.77-1.76 3.32-6.05 9.6-10.68 14.79-15.14q2.91-2.505 5.79-5.04c25.59-22.46 54.54-43.96 86.65-56.06 1.71-.68 3.42-1.37 5.13-2.06.8-.32 1.61-.63 2.45-.96 1.63-.66 3.24-1.35 4.84-2.08 5.69-2.52 10.52-3.24 16.71-3.55 2.89-.35 4.74-1.03 7.31-2.35 5.56-2.83 11.42-2.81 17.56-3 .47-.41.95-.82 1.44-1.25 5.08-4.15 9.02-5.8 15.5-6.5.86-.1 1.72-.21 2.6-.32 2.82-.35 5.64-.64 8.46-.93.96-.1 1.91-.2 2.9-.31 37.76-3.96 80.82-3.94 117.16 8.69m1906.815-10.75c.89-.01 1.79-.01 2.71-.02 2.57-.02 5.15-.02 7.72 0 .38-.01.38-.01 2.3-.02 5.41.07 9.42 1.3 14.39 3.42 4.64 1.85 7.14 1.97 12 1 11.46-.84 23.05 2.86 33.93 6.09 2.41.71 4.81 1.34 7.26 1.91 3.21.84 6.16 1.83 9.25 3 4.82 1.8 9.52 3 14.56 4 .42.46.83.93 1.26 1.41 1.92 1.74 3.21 2.25 5.68 2.96 26.25 8.24 49.12 24.88 71.13 40.87.41.3.41.3 2.49 1.79 4.11 3.02 7.41 5.81 10.44 9.97.66.32 1.33.65 2 1v2c.58.25 1.16.5 1.75.76 2.52 1.38 4.29 2.95 6.36 4.93l2.29 2.17c.78.74 1.55 1.49 2.36 2.26.79.75 1.58 1.51 2.4 2.29 1.95 1.85 3.9 3.72 5.84 5.59v2c.99.32 1.99.65 3 1 24 26.93 24 26.93 24 32h2l5.13 8.37c.5.82 1.01 1.65 1.53 2.5 3.04 4.97 6.06 9.96 9.03 14.98 1.02 1.66 2.1 3.27 3.21 4.86 2.49 3.88 4.46 7.87 6.42 12.03l1.18 2.51c3.59 7.72 6.7 15.6 9.68 23.58.91 2.38 1.87 4.73 2.84 7.09 3.4 8.46 5.67 17.27 7.98 26.08.23.86.46 1.73.7 2.62 10.23 39.89 11.7 82.93 4.3 123.38-.2 1.12-.4 2.24-.61 3.4-1.33 7.23-2.8 14.42-4.39 21.6-.16.75-.32 1.51-.49 2.28-1.88 8.48-4.37 16.72-7.07 24.96-.29.91-.58 1.82-.89 2.75-.28.85-.57 1.71-.86 2.58-.25.76-.51 1.52-.77 2.3-1.01 2.35-2.34 4.12-3.92 6.13a66 66 0 0 0-1.74 4.37c-2.37 6.12-5.32 11.9-8.3 17.73-.96 1.9-1.88 3.8-2.8 5.72-10.38 21.49-23.74 40.64-39.65 58.42-1.59 1.86-3.06 3.78-4.51 5.76h-2c-.24.56-.49 1.13-.74 1.72-2.56 4.63-6.78 8.13-10.5 11.84-.91.9-1.81 1.79-2.73 2.72-6.07 5.97-12.29 11.44-19.11 16.53-4.43 3.32-8.57 6.97-12.6 10.77-5.6 5.16-11.76 9-18.32 12.85-1.1.66-2.21 1.32-3.36 2-8.37 4.92-16.81 9.52-25.64 13.57-.71.33-1.43.66-2.17 1-9.06 4.15-18.21 8.04-27.49 11.67-3.48 1.38-6.9 2.85-10.34 4.33-9.8 4.16-19.61 6.82-30 9l-2.36.5c-27.14 5.63-55.01 5.94-82.64 5.5l-2.21-.03c-10.76-.15-20.81-2.29-31.24-4.72-3.7-.86-7.39-1.61-11.12-2.27-5.2-.92-10.31-2.07-15.43-3.36-.86-.22-1.73-.44-2.63-.66-6.29-1.61-12.32-3.61-18.37-5.96-1.45-.49-2.91-.97-4.37-1.44-15.44-5.14-29.84-11.93-43.63-20.56-.76-.46-1.52-.92-2.3-1.38-5.58-3.36-11.08-6.84-16.59-10.3-1.35-.85-2.7-1.7-4.05-2.54-7.74-4.82-15.08-9.89-22.06-15.78v-2c-.56-.24-1.13-.48-1.72-.73-2.74-1.53-4.54-3.39-6.71-5.65-3.04-3.12-6.06-6.02-9.57-8.62v-2c-.58-.26-1.16-.52-1.76-.78-2.43-1.33-4.06-2.8-6.03-4.75l-2.14-2.14c-.75-.75-1.49-1.5-2.25-2.27-.77-.77-1.53-1.54-2.31-2.33-11.64-11.84-21.09-25.15-30.47-38.8-1.56-2.25-3.15-4.48-4.78-6.69-2.17-3.12-4-6.26-5.81-9.6-1.42-2.61-2.9-5.19-4.39-7.76-12.34-21.36-20.77-44.67-27.36-68.41-.46-1.64-.93-3.28-1.42-4.92-3.66-12.46-4.87-24.26-4.91-37.26-.05-5.59-.28-10.53-1.87-15.91-2.18-7.84-1.87-15.71-1.78-23.78.03-2.67.04-5.34.05-8.01.1-22.52.1-22.52 3.23-31.59.29-3.79.38-7.55.47-11.35.64-4.37 1.87-6.22 4.53-9.65.01-.94.01-1.87.01-2.84.32-10.62 2.58-19.66 6.11-29.65.92-2.62 1.81-5.25 2.7-7.89.6-1.77 1.2-3.54 1.81-5.31l.84-2.47c1.59-4.55 3.44-8.83 5.66-13.11 1.03-2.03 1.84-4.1 2.63-6.23 5.25-13.37 12.37-25.87 20.43-37.72 1.57-2.41 2.38-3.99 2.81-6.78.83-.33.83-.33 5-2 .33-1.33.66-2.64 1-4 .37-.27.37-.27 2.19-1.63 5.61-4.73 7.97-8.34 9.99-15.25 1.26-3.25 3.18-4.91 5.82-7.12h2c.25-.56.5-1.12.76-1.69 2.13-3.95 5-7.24 8.24-10.31h2c.23-.56.46-1.12.69-1.69 1.67-2.95 3.87-5 6.31-7.31h2c.17-.5.17-.5 1-3h2c.17-.5.17-.5 1-3h2v-2c7.91-6.14 15.86-12.19 24-18 .42-.3.42-.3 2.52-1.81 14.74-10.45 30.23-19.34 46.48-27.19.6-.3 1.2-.59 1.82-.89 19.5-9.5 39.99-17.91 61.98-17.58 5.56-.01 8.86-1.01 13.36-4.33 3.07-2.01 6.27-2.5 9.84-3.2.33-.33.66-.67 1-1 17.32-2.27 34.42-3.33 51.88-3.38"/></svg>